<svg xmlns="http://www.w3.org/2000/svg" viewBox="0 0 420 260" role="img" aria-label="Prayer intentions illustration">
  <defs>
    <linearGradient id="bg" x1="0" x2="1" y1="0" y2="1">
      <stop offset="0" stop-color="#684c68"/>
      <stop offset="1" stop-color="#123747"/>
    </linearGradient>
  </defs>
  <rect width="420" height="260" rx="28" fill="url(#bg)"/>
  <path d="M211 204s-92-52-92-112c0-27 18-48 44-48 20 0 35 12 48 31 13-19 28-31 48-31 26 0 44 21 44 48 0 60-92 112-92 112z" fill="#f2acc8" opacity=".72"/>
  <path d="M211 96v64M179 128h64" stroke="#ffffff" stroke-width="10" stroke-linecap="round" opacity=".72"/>
  <circle cx="112" cy="188" r="10" fill="#f7df91" opacity=".76"/>
  <circle cx="332" cy="70" r="8" fill="#8ee0f2" opacity=".7"/>
  <path d="M66 216c64-28 122-30 174-6 44 20 86 16 126-12" stroke="#8ee0f2" stroke-width="10" stroke-linecap="round" opacity=".32"/>
</svg>
