<svg xmlns="http://www.w3.org/2000/svg" viewBox="0 0 420 260" role="img" aria-label="Rosary and novena illustration">
  <defs>
    <linearGradient id="bg" x1="0" x2="1" y1="0" y2="1">
      <stop offset="0" stop-color="#2e7891"/>
      <stop offset="1" stop-color="#0d2838"/>
    </linearGradient>
  </defs>
  <rect width="420" height="260" rx="28" fill="url(#bg)"/>
  <rect x="54" y="52" width="154" height="170" rx="18" fill="#102d3d"/>
  <rect x="76" y="76" width="110" height="16" rx="8" fill="#8ee0f2" opacity=".42"/>
  <rect x="76" y="110" width="92" height="12" rx="6" fill="#ffffff" opacity=".22"/>
  <rect x="76" y="136" width="104" height="12" rx="6" fill="#ffffff" opacity=".18"/>
  <path d="M132 158v36M114 176h36" stroke="#f7df91" stroke-width="8" stroke-linecap="round"/>
  <path d="M276 52c42 44 46 102 12 148" fill="none" stroke="#d9c49b" stroke-width="8" stroke-linecap="round"/>
  <g fill="#f7df91">
    <circle cx="276" cy="52" r="7"/><circle cx="294" cy="75" r="7"/><circle cx="305" cy="102" r="7"/>
    <circle cx="305" cy="130" r="7"/><circle cx="294" cy="158" r="7"/><circle cx="276" cy="200" r="7"/>
  </g>
  <path d="M276 200v32M260 218h32" stroke="#f7df91" stroke-width="8" stroke-linecap="round"/>
  <path d="M330 76c26 32 28 72 6 114" fill="none" stroke="#8ee0f2" stroke-width="8" stroke-linecap="round" opacity=".55"/>
</svg>
