<svg xmlns="http://www.w3.org/2000/svg" viewBox="0 0 420 260" role="img" aria-label="Bible readings illustration">
  <defs>
    <linearGradient id="bg" x1="0" x2="1" y1="0" y2="1">
      <stop offset="0" stop-color="#4d826d"/>
      <stop offset="1" stop-color="#123446"/>
    </linearGradient>
  </defs>
  <rect width="420" height="260" rx="28" fill="url(#bg)"/>
  <circle cx="318" cy="58" r="34" fill="#f7df91" opacity=".72"/>
  <path d="M62 184c46-46 96-46 148 0 52-46 102-46 148 0v38c-48-32-98-32-148 0-50-32-100-32-148 0z" fill="#e8dcc2"/>
  <path d="M210 184v38" stroke="#c4a86b" stroke-width="6"/>
  <path d="M92 188c34-20 66-20 96 0M232 188c34-20 66-20 96 0" stroke="#2b5663" stroke-width="6" stroke-linecap="round" opacity=".44"/>
  <path d="M210 58v76M178 92h64" stroke="#f7df91" stroke-width="10" stroke-linecap="round"/>
  <path d="M54 126c62-32 122-42 180-28" stroke="#8ee0f2" stroke-width="9" stroke-linecap="round" opacity=".28"/>
</svg>
